<?xml version="1.0" encoding="UTF-8"?>
<svg width="171px" height="50px" viewBox="0 0 171 50" version="1.1" xmlns="http://www.w3.org/2000/svg" xmlns:xlink="http://www.w3.org/1999/xlink">
    <title>logo_header</title>
    <defs>
        <polygon id="path-1" points="0 50 171 50 171 0 0 0"></polygon>
    </defs>
    <g id="Symbols" stroke="none" stroke-width="1" fill="none" fill-rule="evenodd">
        <g id="Menu" transform="translate(-254.000000, -25.000000)">
            <g id="logo_header" transform="translate(254.000000, 25.000000)">
                <polygon id="Fill-1" fill="#3D8BBE" points="0 50 171 50 171 0 0 0"></polygon>
                <polygon id="Fill-2" fill="#94C24A" points="104.723179 -0.000142857143 86.7610538 49.9998571 170.999929 49.9998571 170.999929 -0.000142857143"></polygon>
                <g id="Group-14">
                    <path d="M26.2271606,30.7070714 L25.6714106,30.7070714 C22.5221606,30.7070714 19.9714106,28.1499286 19.9714106,24.9963571 L19.9714106,19.6606429 C19.9714106,16.5070714 22.5221606,13.9463571 25.6714106,13.9463571 L26.2271606,13.9463571 C29.3728481,13.9463571 31.9235981,16.5070714 31.9235981,19.6606429 L31.9235981,24.9963571 C31.9235981,28.1499286 29.3728481,30.7070714 26.2271606,30.7070714 M32.1124106,32.6499286 C34.7272856,31.0035 36.4657856,28.0892143 36.4657856,24.7642143 L36.4657856,19.8892143 C36.4657856,14.7535 32.3119106,10.5892143 27.1854731,10.5892143 L24.7095356,10.5892143 C19.5866606,10.5892143 15.4327856,14.7535 15.4327856,19.8892143 L15.4327856,24.7642143 C15.4327856,29.9035 19.5866606,34.0677857 24.7095356,34.0677857 L27.1854731,34.0677857 C27.5417231,34.0677857 27.8944106,34.0467143 28.2399731,34.0070714 C31.0614731,40.0606429 37.8409106,39.9465084 37.8409106,39.9465084 L38.9595356,36.3249286 C35.0728481,36.1035 32.9780981,33.8824286 32.1124106,32.6499286" id="Fill-3" fill="#FFFFFF"></path>
                    <mask id="mask-2" fill="white">
                        <use xlink:href="#path-1"></use>
                    </mask>
                    <g id="Clip-6"></g>
                    <polygon id="Fill-5" fill="#FFFFFF" mask="url(#mask-2)" points="75.9200813 33.3714286 79.9047375 33.3714286 79.9047375 10.6725 75.9200813 10.6725"></polygon>
                    <path d="M54.0894731,33.3713571 L50.3524106,33.3713571 C50.3524106,33.3713571 50.0210981,31.8752857 49.8536606,31.2892143 C49.8536606,31.2892143 48.3182231,33.9106429 45.4147856,33.9106429 C42.5077856,33.9106429 40.2277856,32.0395714 40.2277856,29.4999286 L40.2277856,27.4427857 L40.2277856,26.3395714 L40.2277856,17.5463571 L44.2106606,17.5463571 L44.2106606,28.2106429 C44.2106606,28.2106429 43.8365981,30.8749286 46.2875981,30.8749286 C48.7350356,30.8749286 49.6897856,28.1320714 49.6897856,27.4427857 L49.6897856,17.5463571 L53.6726606,17.5463571 L53.6726606,27.4427857 C53.6726606,27.4427857 53.7973481,32.2070714 54.0894731,33.3713571" id="Fill-7" fill="#FFFFFF" mask="url(#mask-2)"></path>
                    <path d="M139.256522,17.5478929 C139.256522,17.5478929 138.509466,13.2325357 144.236897,13.2325357 L143.324184,9.82075 C143.324184,9.82075 135.355228,10.0464643 135.355228,17.5478929 L132.865041,17.5478929 L132.865041,20.7221786 L135.355228,20.7221786 L135.355228,33.3714643 L139.256522,33.3714643 L139.256522,20.7221786 L142.826147,20.7221786 L142.826147,17.5478929 L139.256522,17.5478929 Z" id="Fill-8" fill="#FFFFFF" mask="url(#mask-2)"></path>
                    <path d="M147.894907,13.1702857 L151.787651,13.1702857 L151.787651,17.5477857 L155.398245,17.5477857 L155.398245,20.7224286 L151.787651,20.7224286 L151.787651,28.5238571 C151.787651,28.5238571 151.396845,32.4767143 156.252889,33.3713571 L155.381501,36.7624286 C155.381501,36.7624286 147.848239,35.5142143 147.848239,29.6474286 L147.848239,20.7849286 L145.358051,20.7849286 L145.358051,17.5477857 L147.894907,17.5477857 L147.894907,13.1702857 Z" id="Fill-9" fill="#FFFFFF" mask="url(#mask-2)"></path>
                    <path d="M126.87858,27.2284286 C126.87858,29.1462857 125.328536,30.7002143 123.415474,30.7002143 L122.90283,30.7002143 C120.989767,30.7002143 119.439724,29.1462857 119.439724,27.2284286 L119.439724,23.5287857 C119.439724,21.6109286 120.989767,20.057 122.90283,20.057 L123.415474,20.057 C125.328536,20.057 126.87858,21.6109286 126.87858,23.5287857 L126.87858,27.2284286 Z M124.174286,17.082 L122.144017,17.082 C118.353161,17.082 115.278724,20.1641429 115.278724,23.9641429 L115.278724,26.7927143 C115.278724,30.5927143 118.353161,33.6752143 122.144017,33.6752143 L124.174286,33.6752143 C127.965142,33.6752143 131.03958,30.5927143 131.03958,26.7927143 L131.03958,23.9641429 C131.03958,20.1641429 127.965142,17.082 124.174286,17.082 L124.174286,17.082 Z" id="Fill-10" fill="#FFFFFF" mask="url(#mask-2)"></path>
                    <polygon id="Fill-11" fill="#FFFFFF" mask="url(#mask-2)" points="98.4199763 17.5465 90.2647013 40.2465 86.379795 40.2465 88.8489638 33.2104286 82.560795 17.5465 86.9604825 17.5465 90.8008575 27.6536429 94.3491075 17.5465"></polygon>
                    <path d="M111.240808,21.18 L112.859608,17.9760714 C112.859608,17.9760714 103.147521,14.9385714 101.030683,19.4532143 C100.331008,20.9460714 100.238027,22.6267857 101.115471,24.0635714 C102.225546,25.8825 103.930558,26.26 105.772727,26.9635714 C106.720708,27.3260714 109.502308,28.0475 109.087633,29.5257143 C108.697539,30.9153571 106.935883,30.87 105.820108,30.7221429 C104.354496,30.5275 102.920589,30.0703571 101.528721,29.585 L100.200621,32.7471429 C100.200621,32.7471429 112.630896,37.3164286 113.233314,29.0857143 C113.689671,22.8442857 104.268283,24.675 104.683314,21.4296429 C105.018189,18.8085714 111.240808,21.18 111.240808,21.18" id="Fill-12" fill="#FFFFFF" mask="url(#mask-2)"></path>
                    <path d="M67.1362388,29.1376071 C67.0649888,29.3568929 66.9602513,29.55725 66.8106263,29.72725 C66.1351763,30.4976071 65.0243888,30.70725 64.050045,30.70725 C61.3742513,30.70725 61.4957325,28.9004643 61.4957325,28.8961786 C61.6115138,27.1958214 63.2769825,26.1543929 64.8398513,26.1536786 L67.1640263,26.1536786 C67.1640263,27.0108214 67.4290763,28.23725 67.1362388,29.1376071 M71.5181138,30.0140357 C71.4522075,29.1493929 71.4137325,28.2804643 71.41017,27.3876071 C71.4055388,26.2690357 71.2840575,25.0818929 71.3962763,23.9676071 C71.3962763,23.9676071 71.89467,19.0161786 68.6332013,17.6451071 C63.9022013,16.0915357 57.822795,18.2251071 57.822795,18.2251071 L59.4665325,21.3990357 C59.4665325,21.3990357 62.1401888,20.1811786 65.1291263,20.1811786 C68.1180638,20.1811786 67.2883575,23.5929643 67.2883575,23.5929643 L63.864795,23.5929643 C59.75367,23.5929643 57.2638388,26.2140357 57.2638388,28.8961786 C57.2638388,31.5786786 58.8812138,33.9104643 62.7426075,33.9104643 C66.6011513,33.9104643 67.413045,31.83225 67.413045,31.83225 L68.1576075,33.3711786 L71.89467,33.3711786 C71.733645,32.2326071 71.6032575,31.1268929 71.5181138,30.0140357" id="Fill-13" fill="#FFFFFF" mask="url(#mask-2)"></path>
                </g>
            </g>
        </g>
    </g>
</svg>